<?xml version="1.0" encoding="UTF-8" standalone="no"?>
<svg width="643px" height="147px" viewBox="0 0 643 147" version="1.1" xmlns="http://www.w3.org/2000/svg" xmlns:xlink="http://www.w3.org/1999/xlink">
    <!-- Generator: Sketch 40 (33762) - http://www.bohemiancoding.com/sketch -->
    <title>Group 2</title>
    <desc>Created with Sketch.</desc>
    <defs>
        <linearGradient x1="50.0000012%" y1="-0.170030573%" x2="50.0000012%" y2="99.823847%" id="linearGradient-1">
            <stop stop-color="#4F4F4F" offset="0%"></stop>
            <stop stop-color="#333333" offset="100%"></stop>
        </linearGradient>
        <linearGradient x1="50.0023299%" y1="-327.127614%" x2="50.0023299%" y2="97.3506876%" id="linearGradient-2">
            <stop stop-color="#D3D4D3" offset="0%"></stop>
            <stop stop-color="#B8BABB" offset="100%"></stop>
        </linearGradient>
        <linearGradient x1="50.0006822%" y1="-121.491951%" x2="50.0006822%" y2="120.597715%" id="linearGradient-3">
            <stop stop-color="#D3D4D3" offset="0%"></stop>
            <stop stop-color="#B8BABB" offset="100%"></stop>
        </linearGradient>
        <linearGradient x1="50.0032407%" y1="-62.2184918%" x2="50.0032407%" y2="159.035871%" id="linearGradient-4">
            <stop stop-color="#D3D4D3" offset="0%"></stop>
            <stop stop-color="#B8BABB" offset="100%"></stop>
        </linearGradient>
        <linearGradient x1="49.9990836%" y1="-23.8483311%" x2="49.9990836%" y2="217.789254%" id="linearGradient-5">
            <stop stop-color="#D3D4D3" offset="0%"></stop>
            <stop stop-color="#B8BABB" offset="100%"></stop>
        </linearGradient>
        <linearGradient x1="49.9918218%" y1="-2.49848064%" x2="49.9918218%" y2="416.940504%" id="linearGradient-6">
            <stop stop-color="#D3D4D3" offset="0%"></stop>
            <stop stop-color="#B8BABB" offset="100%"></stop>
        </linearGradient>
        <linearGradient x1="49.9898903%" y1="-1.46863635%" x2="49.9898903%" y2="102.063542%" id="linearGradient-7">
            <stop stop-color="#4F4F4F" offset="0%"></stop>
            <stop stop-color="#333333" offset="100%"></stop>
        </linearGradient>
    </defs>
    <g id="Page-1" stroke="none" stroke-width="1" fill="none" fill-rule="evenodd">
        <g id="Group" transform="translate(0.000000, -932.000000)">
            <g id="Group-2" transform="translate(0.000000, 926.000000)">
                <text id="litecoin" font-family="Ubuntu-BoldItalic, Ubuntu" font-size="144" font-style="italic" font-weight="bold" fill="#3D3F3C">
                    <tspan x="148.124" y="134">litecoin</tspan>
                </text>
                <g id="Logo" transform="translate(0.000000, 6.000000)">
                    <g id="Layer_1">
                        <g id="XMLID_551_">
                            <path d="M146.959467,73.5 C146.959467,114.087132 114.087132,146.959467 73.5,146.959467 C32.9128676,146.959467 0.0405330882,114.087132 0.0405330882,73.5 C0.0405330882,32.9128676 32.9128676,0.0405330882 73.5,0.0405330882 C114.087132,0.0405330882 146.959467,32.9128676 146.959467,73.5 L146.959467,73.5 Z" id="path11087_1_" fill="url(#linearGradient-1)"></path>
                            <path d="M137.907077,73.5 C137.907077,109.034007 109.047518,137.907077 73.5,137.907077 C37.9524816,137.907077 9.09292279,109.115074 9.09292279,73.5 C9.09292279,37.9659926 37.9524816,9.09292279 73.5,9.09292279 C109.115074,9.09292279 137.907077,37.9659926 137.907077,73.5 L137.907077,73.5 Z" id="path11089_1_" fill="#FFFFFF"></path>
                            <g id="XMLID_552_" transform="translate(21.077206, 20.942096)">
                                <path d="M97.0902574,80.3095588 L36.763511,102.64329 C41.7355699,104.197059 47.0048713,105.021232 52.4903493,105.021232 C71.2706801,105.088787 87.8081801,95.1446691 97.0902574,80.3095588 L97.0902574,80.3095588 L97.0902574,80.3095588 Z" id="path11093_1_" fill="url(#linearGradient-2)"></path>
                                <path d="M104.953676,52.1120404 L12.2815257,86.4705882 C15.172886,89.8888787 18.4425551,92.9288603 22.0770221,95.4419118 L103.399908,65.244761 C104.440257,61.1644301 104.953676,56.9354779 104.953676,52.5579044 L104.953676,52.1120404 L104.953676,52.1120404 L104.953676,52.1120404 Z" id="path11095_1_" fill="url(#linearGradient-3)"></path>
                                <path d="M99.3195772,28.9676471 L1.44568015,65.244761 C2.40496324,69.1089154 3.82362132,72.8109375 5.60707721,76.3778493 L103.467463,40.1007353 C102.50818,36.1555147 101.089522,32.4534926 99.3195772,28.9676471 L99.3195772,28.9676471 L99.3195772,28.9676471 Z" id="path11097_1_" fill="url(#linearGradient-4)"></path>
                                <path d="M82.9171875,9.82251838 L1.52674632,40.0196691 C0.567463235,44.0324449 0.0405330882,48.2613971 0.0405330882,52.6389706 L0.0405330882,53.2334559 L92.7126838,18.8073529 C89.8213235,15.3890625 86.4840993,12.3490809 82.9171875,9.82251838 L82.9171875,9.82251838 L82.9171875,9.82251838 Z" id="path11099_1_" fill="url(#linearGradient-5)"></path>
                                <path d="M52.4227941,0.0945772059 C33.5073529,0.0945772059 16.9563419,10.10625 7.68777574,25.1034926 L68.3793199,2.62113971 C63.407261,0.91875 57.9893382,0.0945772059 52.4227941,0.0945772059 L52.4227941,0.0945772059 L52.4227941,0.0945772059 Z" id="path11101_1_" fill="url(#linearGradient-6)"></path>
                            </g>
                            <polygon id="path11103_1_" fill="url(#linearGradient-7)" points="60.8131434 30.8321691 51.0987132 67.7848346 44.6404412 70.1627757 39.0063419 91.3075368 45.5321691 88.8620404 40.7897978 106.885754 107.345129 106.885754 113.425092 83.8089154 78.3234375 83.8089154 80.404136 75.8644301 86.8624081 73.486489 92.4965074 52.3417279 86.0382353 54.7872243 92.347886 30.8186581 60.8131434 30.8186581"></polygon>
                            <polygon id="path11105_1_" fill="#FFFFFF" points="63.853125 34.7638787 54.3548713 70.5951287 47.8290441 73.1352022 44.7079963 84.8492647 51.2338235 82.4037684 45.8159007 102.886489 104.21057 102.886489 108.223346 87.6730699 73.1352022 87.6730699 77.0669118 72.8379596 83.5251838 70.4600184 86.6462316 58.7324449 80.1879596 61.1779412 87.0920956 34.7638787"></polygon>
                        </g>
                    </g>
                </g>
            </g>
        </g>
    </g>
</svg>